<?xml version="1.0" encoding="utf-8"?>
<!-- Generator: Adobe Illustrator 16.0.3, SVG Export Plug-In . SVG Version: 6.00 Build 0)  -->
<!DOCTYPE svg PUBLIC "-//W3C//DTD SVG 1.1//EN" "http://www.w3.org/Graphics/SVG/1.1/DTD/svg11.dtd">
<svg version="1.1" id="Layer_1" xmlns="http://www.w3.org/2000/svg" xmlns:xlink="http://www.w3.org/1999/xlink" x="0px" y="0px"
	 width="512px" height="512px" viewBox="0 0 512 512" enable-background="new 0 0 512 512" xml:space="preserve">
<path fill="#5D4926" d="M373.38,147.03v217.94c0,4.65-3.76,8.41-8.41,8.41H147.03c-4.65,0-8.42-3.76-8.42-8.41V147.03
	c0-4.65,3.77-8.41,8.42-8.41h217.94C369.62,138.62,373.38,142.38,373.38,147.03z"/>
<g>
	<g>
		<path fill="#FEA219" d="M364.97,138.62H147.03c-4.65,0-8.42,3.76-8.42,8.41v217.94c0,4.65,3.77,8.41,8.42,8.41h217.94
			c4.65,0,8.41-3.76,8.41-8.41V147.03C373.38,142.38,369.62,138.62,364.97,138.62z M356.56,356.56H155.44V155.44h201.12V356.56z"/>
		<path fill="#FEA219" d="M288.76,298.53l-38.15-96.46c-1.49-3.58-4.74-5.81-8.48-5.81c-3.81,0-6.77,2.06-8.36,5.87l-38.07,96.29
			c-0.75,1.62-0.77,3.561-0.77,3.78c0,4.92,4,8.92,8.92,8.92c3.82,0,7.08-2.32,8.5-6.021l10.5-26.319h38.69l10.34,26.43
			c1.42,3.7,4.61,5.91,8.53,5.91c5.08,0,9.07-3.92,9.07-8.92C289.48,301.3,289.25,299.77,288.76,298.53z M228.95,261.88l13.19-34.22
			l13.31,34.22H228.95z"/>
		<path fill="#FEA219" d="M305.086,222.999c5.708,0,9.543-3.834,9.543-9.542c0-6.263-3.479-9.855-9.543-9.855
			c-6.064,0-9.542,3.593-9.542,9.855C295.543,219.165,299.379,222.999,305.086,222.999z"/>
		<path fill="#FEA219" d="M305.086,230.475c-4.825,0-8.605,3.78-8.605,8.605v63.434c0,4.825,3.78,8.605,8.605,8.605
			c4.824,0,8.604-3.78,8.604-8.605V239.08C313.69,234.255,309.91,230.475,305.086,230.475z"/>
	</g>
</g>
</svg>
